<mxfile host="app.diagrams.net" modified="2024-04-28T02:28:03.327Z" agent="Mozilla/5.0 (Windows NT 10.0; Win64; x64) AppleWebKit/537.36 (KHTML, like Gecko) Chrome/124.0.0.0 Safari/537.36" etag="NbMx4pV4sE-HpuLdiXgO" version="24.3.0" type="device">
  <diagram name="Page-1" id="HsGsWS7ECb9TnKtCGykP">
    <mxGraphModel dx="2290" dy="738" grid="1" gridSize="10" guides="1" tooltips="1" connect="1" arrows="1" fold="1" page="1" pageScale="1" pageWidth="850" pageHeight="1100" math="0" shadow="0">
      <root>
        <mxCell id="0" />
        <mxCell id="1" parent="0" />
        <mxCell id="r_Gh3OEbrr8wISUfsbzo-7" style="edgeStyle=orthogonalEdgeStyle;rounded=0;orthogonalLoop=1;jettySize=auto;html=1;exitX=0.5;exitY=1;exitDx=0;exitDy=0;entryX=0.5;entryY=0;entryDx=0;entryDy=0;" edge="1" parent="1" source="r_Gh3OEbrr8wISUfsbzo-1" target="r_Gh3OEbrr8wISUfsbzo-2">
          <mxGeometry relative="1" as="geometry" />
        </mxCell>
        <mxCell id="r_Gh3OEbrr8wISUfsbzo-1" value="&lt;div style=&quot;background-color:#ffffff;color:#080808&quot;&gt;&lt;pre style=&quot;font-family:&#39;JetBrains Mono&#39;,monospace;font-size:13.5pt;&quot;&gt;&lt;span style=&quot;font-style:italic;&quot;&gt;App&lt;/span&gt;&lt;/pre&gt;&lt;/div&gt;" style="rounded=1;whiteSpace=wrap;html=1;" vertex="1" parent="1">
          <mxGeometry x="300" y="40" width="120" height="60" as="geometry" />
        </mxCell>
        <mxCell id="r_Gh3OEbrr8wISUfsbzo-5" style="edgeStyle=orthogonalEdgeStyle;rounded=0;orthogonalLoop=1;jettySize=auto;html=1;exitX=0.5;exitY=1;exitDx=0;exitDy=0;" edge="1" parent="1" source="r_Gh3OEbrr8wISUfsbzo-2" target="r_Gh3OEbrr8wISUfsbzo-3">
          <mxGeometry relative="1" as="geometry" />
        </mxCell>
        <mxCell id="r_Gh3OEbrr8wISUfsbzo-6" style="edgeStyle=orthogonalEdgeStyle;rounded=0;orthogonalLoop=1;jettySize=auto;html=1;exitX=0.5;exitY=1;exitDx=0;exitDy=0;entryX=0.5;entryY=0;entryDx=0;entryDy=0;" edge="1" parent="1" source="r_Gh3OEbrr8wISUfsbzo-2" target="r_Gh3OEbrr8wISUfsbzo-4">
          <mxGeometry relative="1" as="geometry" />
        </mxCell>
        <mxCell id="r_Gh3OEbrr8wISUfsbzo-2" value="&lt;div style=&quot;background-color:#ffffff;color:#080808&quot;&gt;&lt;pre style=&quot;font-family:&#39;JetBrains Mono&#39;,monospace;font-size:13.5pt;&quot;&gt;&lt;span style=&quot;color:#0033b3;&quot;&gt;EditableHighlighter&lt;/span&gt;&lt;/pre&gt;&lt;/div&gt;" style="rounded=1;whiteSpace=wrap;html=1;" vertex="1" parent="1">
          <mxGeometry x="255" y="120" width="210" height="60" as="geometry" />
        </mxCell>
        <mxCell id="r_Gh3OEbrr8wISUfsbzo-41" style="edgeStyle=orthogonalEdgeStyle;rounded=0;orthogonalLoop=1;jettySize=auto;html=1;exitX=1;exitY=1;exitDx=0;exitDy=0;entryX=0;entryY=0;entryDx=0;entryDy=0;" edge="1" parent="1" source="r_Gh3OEbrr8wISUfsbzo-3" target="r_Gh3OEbrr8wISUfsbzo-16">
          <mxGeometry relative="1" as="geometry" />
        </mxCell>
        <mxCell id="r_Gh3OEbrr8wISUfsbzo-42" style="edgeStyle=orthogonalEdgeStyle;rounded=0;orthogonalLoop=1;jettySize=auto;html=1;exitX=0.5;exitY=1;exitDx=0;exitDy=0;entryX=0.5;entryY=0;entryDx=0;entryDy=0;" edge="1" parent="1" source="r_Gh3OEbrr8wISUfsbzo-3" target="r_Gh3OEbrr8wISUfsbzo-9">
          <mxGeometry relative="1" as="geometry" />
        </mxCell>
        <mxCell id="r_Gh3OEbrr8wISUfsbzo-43" style="edgeStyle=orthogonalEdgeStyle;rounded=0;orthogonalLoop=1;jettySize=auto;html=1;exitX=0.5;exitY=1;exitDx=0;exitDy=0;entryX=0.5;entryY=0;entryDx=0;entryDy=0;" edge="1" parent="1" source="r_Gh3OEbrr8wISUfsbzo-3" target="r_Gh3OEbrr8wISUfsbzo-10">
          <mxGeometry relative="1" as="geometry" />
        </mxCell>
        <mxCell id="r_Gh3OEbrr8wISUfsbzo-3" value="&lt;div style=&quot;background-color:#ffffff;color:#080808&quot;&gt;&lt;pre style=&quot;font-family:&#39;JetBrains Mono&#39;,monospace;font-size:13.5pt;&quot;&gt;&lt;span style=&quot;color:#0033b3;&quot;&gt;ContentEditable&lt;/span&gt;&lt;/pre&gt;&lt;/div&gt;" style="rounded=0;whiteSpace=wrap;html=1;" vertex="1" parent="1">
          <mxGeometry x="170" y="220" width="170" height="60" as="geometry" />
        </mxCell>
        <mxCell id="r_Gh3OEbrr8wISUfsbzo-40" style="edgeStyle=orthogonalEdgeStyle;rounded=0;orthogonalLoop=1;jettySize=auto;html=1;exitX=0;exitY=1;exitDx=0;exitDy=0;entryX=1;entryY=0;entryDx=0;entryDy=0;" edge="1" parent="1" source="r_Gh3OEbrr8wISUfsbzo-4" target="r_Gh3OEbrr8wISUfsbzo-15">
          <mxGeometry relative="1" as="geometry" />
        </mxCell>
        <mxCell id="r_Gh3OEbrr8wISUfsbzo-46" style="edgeStyle=orthogonalEdgeStyle;rounded=0;orthogonalLoop=1;jettySize=auto;html=1;exitX=0.5;exitY=1;exitDx=0;exitDy=0;entryX=0.5;entryY=0;entryDx=0;entryDy=0;" edge="1" parent="1" source="r_Gh3OEbrr8wISUfsbzo-4" target="r_Gh3OEbrr8wISUfsbzo-13">
          <mxGeometry relative="1" as="geometry" />
        </mxCell>
        <mxCell id="r_Gh3OEbrr8wISUfsbzo-47" style="edgeStyle=orthogonalEdgeStyle;rounded=0;orthogonalLoop=1;jettySize=auto;html=1;exitX=0.5;exitY=1;exitDx=0;exitDy=0;entryX=0.5;entryY=0;entryDx=0;entryDy=0;" edge="1" parent="1" source="r_Gh3OEbrr8wISUfsbzo-4" target="r_Gh3OEbrr8wISUfsbzo-14">
          <mxGeometry relative="1" as="geometry" />
        </mxCell>
        <mxCell id="r_Gh3OEbrr8wISUfsbzo-4" value="&lt;div style=&quot;background-color:#ffffff;color:#080808&quot;&gt;&lt;pre style=&quot;font-family:&#39;JetBrains Mono&#39;,monospace;font-size:13.5pt;&quot;&gt;&lt;span style=&quot;color:#0033b3;&quot;&gt;ContentEditable&lt;/span&gt;&lt;/pre&gt;&lt;/div&gt;" style="rounded=0;whiteSpace=wrap;html=1;" vertex="1" parent="1">
          <mxGeometry x="380" y="220" width="170" height="60" as="geometry" />
        </mxCell>
        <mxCell id="r_Gh3OEbrr8wISUfsbzo-8" value="Content Editables may need to be wrapped in a react component that gets props from parent" style="text;html=1;align=center;verticalAlign=middle;whiteSpace=wrap;rounded=0;" vertex="1" parent="1">
          <mxGeometry x="485" y="180" width="260" height="30" as="geometry" />
        </mxCell>
        <mxCell id="r_Gh3OEbrr8wISUfsbzo-9" value="&lt;div style=&quot;background-color:#ffffff;color:#080808&quot;&gt;&lt;pre style=&quot;font-family:&#39;JetBrains Mono&#39;,monospace;font-size:13.5pt;&quot;&gt;&lt;span style=&quot;color:#248f8f;&quot;&gt;onPasteJD&lt;/span&gt;&lt;/pre&gt;&lt;/div&gt;" style="whiteSpace=wrap;html=1;" vertex="1" parent="1">
          <mxGeometry x="60" y="320" width="120" height="60" as="geometry" />
        </mxCell>
        <mxCell id="r_Gh3OEbrr8wISUfsbzo-10" value="&lt;div style=&quot;background-color:#ffffff;color:#080808&quot;&gt;&lt;pre style=&quot;font-family:&#39;JetBrains Mono&#39;,monospace;font-size:13.5pt;&quot;&gt;&lt;span style=&quot;color:#248f8f;&quot;&gt;onKeyDownJD&lt;/span&gt;&lt;/pre&gt;&lt;/div&gt;" style="whiteSpace=wrap;html=1;" vertex="1" parent="1">
          <mxGeometry x="-300" y="320" width="120" height="60" as="geometry" />
        </mxCell>
        <mxCell id="r_Gh3OEbrr8wISUfsbzo-13" value="&lt;div style=&quot;background-color:#ffffff;color:#080808&quot;&gt;&lt;pre style=&quot;font-family:&#39;JetBrains Mono&#39;,monospace;font-size:13.5pt;&quot;&gt;&lt;span style=&quot;color:#248f8f;&quot;&gt;onKeyDownR&lt;/span&gt;&lt;/pre&gt;&lt;/div&gt;" style="whiteSpace=wrap;html=1;" vertex="1" parent="1">
          <mxGeometry x="540" y="320" width="120" height="60" as="geometry" />
        </mxCell>
        <mxCell id="r_Gh3OEbrr8wISUfsbzo-14" value="&lt;div style=&quot;background-color:#ffffff;color:#080808&quot;&gt;&lt;pre style=&quot;font-family:&#39;JetBrains Mono&#39;,monospace;font-size:13.5pt;&quot;&gt;&lt;span style=&quot;color:#248f8f;&quot;&gt;onPasteR&lt;/span&gt;&lt;/pre&gt;&lt;/div&gt;" style="whiteSpace=wrap;html=1;" vertex="1" parent="1">
          <mxGeometry x="700" y="320" width="120" height="60" as="geometry" />
        </mxCell>
        <mxCell id="r_Gh3OEbrr8wISUfsbzo-15" value="&lt;div style=&quot;background-color:#ffffff;color:#080808&quot;&gt;&lt;pre style=&quot;font-family:&#39;JetBrains Mono&#39;,monospace;font-size:13.5pt;&quot;&gt;&lt;div&gt;&lt;pre style=&quot;font-family:&#39;JetBrains Mono&#39;,monospace;font-size:13.5pt;&quot;&gt;&lt;span style=&quot;color:#248f8f;&quot;&gt;onSelect&lt;/span&gt;&lt;/pre&gt;&lt;/div&gt;&lt;/pre&gt;&lt;/div&gt;" style="whiteSpace=wrap;html=1;" vertex="1" parent="1">
          <mxGeometry x="220" y="320" width="120" height="60" as="geometry" />
        </mxCell>
        <mxCell id="r_Gh3OEbrr8wISUfsbzo-16" value="&lt;div style=&quot;background-color:#ffffff;color:#080808&quot;&gt;&lt;pre style=&quot;font-family:&#39;JetBrains Mono&#39;,monospace;font-size:13.5pt;&quot;&gt;&lt;pre style=&quot;font-family:&#39;JetBrains Mono&#39;,monospace;font-size:13.5pt;&quot;&gt;&lt;div&gt;&lt;pre style=&quot;font-family:&#39;JetBrains Mono&#39;,monospace;font-size:13.5pt;&quot;&gt;&lt;span style=&quot;color:#248f8f;&quot;&gt;onClick&lt;/span&gt;&lt;/pre&gt;&lt;/div&gt;&lt;/pre&gt;&lt;/pre&gt;&lt;/div&gt;" style="whiteSpace=wrap;html=1;" vertex="1" parent="1">
          <mxGeometry x="380" y="320" width="120" height="60" as="geometry" />
        </mxCell>
        <mxCell id="r_Gh3OEbrr8wISUfsbzo-55" value="the reason why you have to reset the text&amp;nbsp;&lt;div&gt;is because you might backspace or clobber a tag with text&lt;/div&gt;&lt;div&gt;which is behavior undefined&lt;/div&gt;&lt;div&gt;so if you hit backspace, delete, or replace a current selection, you have to set to nonhtml&lt;/div&gt;" style="text;html=1;align=center;verticalAlign=middle;resizable=0;points=[];autosize=1;strokeColor=none;fillColor=none;" vertex="1" parent="1">
          <mxGeometry x="-400" y="600" width="490" height="70" as="geometry" />
        </mxCell>
        <mxCell id="r_Gh3OEbrr8wISUfsbzo-56" value="It seems like onChange actually sucks and doesn&#39;t have enough event data to be usable" style="text;html=1;align=center;verticalAlign=middle;resizable=0;points=[];autosize=1;strokeColor=none;fillColor=none;" vertex="1" parent="1">
          <mxGeometry x="-430" y="260" width="490" height="30" as="geometry" />
        </mxCell>
        <mxCell id="r_Gh3OEbrr8wISUfsbzo-66" style="edgeStyle=orthogonalEdgeStyle;rounded=0;orthogonalLoop=1;jettySize=auto;html=1;exitX=0.5;exitY=1;exitDx=0;exitDy=0;" edge="1" parent="1" source="r_Gh3OEbrr8wISUfsbzo-57" target="r_Gh3OEbrr8wISUfsbzo-65">
          <mxGeometry relative="1" as="geometry" />
        </mxCell>
        <mxCell id="r_Gh3OEbrr8wISUfsbzo-57" value="&lt;div style=&quot;background-color:#ffffff;color:#080808&quot;&gt;&lt;pre style=&quot;font-family:&#39;JetBrains Mono&#39;,monospace;font-size:13.5pt;&quot;&gt;&lt;span style=&quot;font-style:italic;&quot;&gt;handleEnterPressJD&lt;/span&gt;&lt;/pre&gt;&lt;/div&gt;" style="rounded=1;whiteSpace=wrap;html=1;" vertex="1" parent="1">
          <mxGeometry x="-577.5" y="420" width="240" height="60" as="geometry" />
        </mxCell>
        <mxCell id="r_Gh3OEbrr8wISUfsbzo-58" value="&lt;div style=&quot;background-color:#ffffff;color:#080808&quot;&gt;&lt;pre style=&quot;font-family:&#39;JetBrains Mono&#39;,monospace;font-size:13.5pt;&quot;&gt;&lt;div&gt;&lt;pre style=&quot;font-family:&#39;JetBrains Mono&#39;,monospace;font-size:13.5pt;&quot;&gt;&lt;span style=&quot;font-style:italic;&quot;&gt;handleFetchDebounce&lt;/span&gt;&lt;/pre&gt;&lt;/div&gt;&lt;/pre&gt;&lt;/div&gt;" style="rounded=1;whiteSpace=wrap;html=1;" vertex="1" parent="1">
          <mxGeometry x="-212.5" y="420" width="240" height="60" as="geometry" />
        </mxCell>
        <mxCell id="r_Gh3OEbrr8wISUfsbzo-61" style="edgeStyle=orthogonalEdgeStyle;rounded=0;orthogonalLoop=1;jettySize=auto;html=1;exitX=0.5;exitY=1;exitDx=0;exitDy=0;entryX=0.44;entryY=0.017;entryDx=0;entryDy=0;entryPerimeter=0;" edge="1" parent="1" source="r_Gh3OEbrr8wISUfsbzo-10" target="r_Gh3OEbrr8wISUfsbzo-57">
          <mxGeometry relative="1" as="geometry" />
        </mxCell>
        <mxCell id="r_Gh3OEbrr8wISUfsbzo-62" style="edgeStyle=orthogonalEdgeStyle;rounded=0;orthogonalLoop=1;jettySize=auto;html=1;exitX=0.5;exitY=1;exitDx=0;exitDy=0;entryX=0.544;entryY=-0.033;entryDx=0;entryDy=0;entryPerimeter=0;" edge="1" parent="1" source="r_Gh3OEbrr8wISUfsbzo-10" target="r_Gh3OEbrr8wISUfsbzo-58">
          <mxGeometry relative="1" as="geometry" />
        </mxCell>
        <mxCell id="r_Gh3OEbrr8wISUfsbzo-68" style="edgeStyle=orthogonalEdgeStyle;rounded=0;orthogonalLoop=1;jettySize=auto;html=1;exitX=0.5;exitY=1;exitDx=0;exitDy=0;entryX=0.5;entryY=0;entryDx=0;entryDy=0;" edge="1" parent="1" source="r_Gh3OEbrr8wISUfsbzo-63" target="r_Gh3OEbrr8wISUfsbzo-67">
          <mxGeometry relative="1" as="geometry" />
        </mxCell>
        <mxCell id="r_Gh3OEbrr8wISUfsbzo-63" value="&lt;div style=&quot;background-color:#ffffff;color:#080808&quot;&gt;&lt;pre style=&quot;font-family:&#39;JetBrains Mono&#39;,monospace;font-size:13.5pt;&quot;&gt;&lt;div&gt;&lt;pre style=&quot;font-family:&#39;JetBrains Mono&#39;,monospace;font-size:13.5pt;&quot;&gt;&lt;span style=&quot;font-style:italic;&quot;&gt;handleFetchDebounce&lt;/span&gt;&lt;/pre&gt;&lt;/div&gt;&lt;/pre&gt;&lt;/div&gt;" style="rounded=1;whiteSpace=wrap;html=1;" vertex="1" parent="1">
          <mxGeometry x="-700" y="520" width="200" height="60" as="geometry" />
        </mxCell>
        <mxCell id="r_Gh3OEbrr8wISUfsbzo-64" style="edgeStyle=orthogonalEdgeStyle;rounded=0;orthogonalLoop=1;jettySize=auto;html=1;exitX=0.5;exitY=1;exitDx=0;exitDy=0;entryX=0.471;entryY=-0.067;entryDx=0;entryDy=0;entryPerimeter=0;" edge="1" parent="1" source="r_Gh3OEbrr8wISUfsbzo-57" target="r_Gh3OEbrr8wISUfsbzo-63">
          <mxGeometry relative="1" as="geometry" />
        </mxCell>
        <mxCell id="r_Gh3OEbrr8wISUfsbzo-65" value="&lt;div style=&quot;background-color:#ffffff;color:#080808&quot;&gt;&lt;pre style=&quot;font-family:&#39;JetBrains Mono&#39;,monospace;font-size:13.5pt;&quot;&gt;&lt;pre style=&quot;font-family:&#39;JetBrains Mono&#39;,monospace;font-size:13.5pt;&quot;&gt;&lt;div&gt;&lt;pre style=&quot;font-family:&#39;JetBrains Mono&#39;,monospace;font-size:13.5pt;&quot;&gt;&lt;span style=&quot;color:#830091;&quot;&gt;window&lt;/span&gt;.&lt;span style=&quot;color:#871094;&quot;&gt;setHtmlJDG&lt;/span&gt;&lt;/pre&gt;&lt;/div&gt;&lt;/pre&gt;&lt;/pre&gt;&lt;/div&gt;" style="rounded=1;whiteSpace=wrap;html=1;" vertex="1" parent="1">
          <mxGeometry x="-430" y="520" width="210" height="60" as="geometry" />
        </mxCell>
        <mxCell id="r_Gh3OEbrr8wISUfsbzo-71" style="edgeStyle=orthogonalEdgeStyle;rounded=0;orthogonalLoop=1;jettySize=auto;html=1;exitX=0.5;exitY=1;exitDx=0;exitDy=0;" edge="1" parent="1" source="r_Gh3OEbrr8wISUfsbzo-67" target="r_Gh3OEbrr8wISUfsbzo-69">
          <mxGeometry relative="1" as="geometry" />
        </mxCell>
        <mxCell id="r_Gh3OEbrr8wISUfsbzo-73" style="edgeStyle=orthogonalEdgeStyle;rounded=0;orthogonalLoop=1;jettySize=auto;html=1;exitX=0.5;exitY=1;exitDx=0;exitDy=0;" edge="1" parent="1" source="r_Gh3OEbrr8wISUfsbzo-67" target="r_Gh3OEbrr8wISUfsbzo-70">
          <mxGeometry relative="1" as="geometry" />
        </mxCell>
        <mxCell id="r_Gh3OEbrr8wISUfsbzo-67" value="&lt;div style=&quot;background-color:#ffffff;color:#080808&quot;&gt;&lt;pre style=&quot;font-family:&#39;JetBrains Mono&#39;,monospace;font-size:13.5pt;&quot;&gt;&lt;pre style=&quot;font-family:&#39;JetBrains Mono&#39;,monospace;font-size:13.5pt;&quot;&gt;&lt;div&gt;&lt;pre style=&quot;font-family:&#39;JetBrains Mono&#39;,monospace;font-size:13.5pt;&quot;&gt;&lt;span style=&quot;font-style:italic;&quot;&gt;setHighlightPhrases&lt;/span&gt;&lt;/pre&gt;&lt;/div&gt;&lt;/pre&gt;&lt;/pre&gt;&lt;/div&gt;" style="rounded=1;whiteSpace=wrap;html=1;" vertex="1" parent="1">
          <mxGeometry x="-700" y="620" width="200" height="60" as="geometry" />
        </mxCell>
        <mxCell id="r_Gh3OEbrr8wISUfsbzo-69" value="&lt;div style=&quot;background-color:#ffffff;color:#080808&quot;&gt;&lt;pre style=&quot;font-family:&#39;JetBrains Mono&#39;,monospace;font-size:13.5pt;&quot;&gt;&lt;pre style=&quot;font-family:&#39;JetBrains Mono&#39;,monospace;font-size:13.5pt;&quot;&gt;&lt;div&gt;&lt;pre style=&quot;font-family:&#39;JetBrains Mono&#39;,monospace;font-size:13.5pt;&quot;&gt;&lt;span style=&quot;color:#830091;&quot;&gt;window&lt;/span&gt;.&lt;span style=&quot;color:#871094;&quot;&gt;setHtmlJDG&lt;/span&gt;&lt;/pre&gt;&lt;/div&gt;&lt;/pre&gt;&lt;/pre&gt;&lt;/div&gt;" style="rounded=1;whiteSpace=wrap;html=1;" vertex="1" parent="1">
          <mxGeometry x="-830" y="720" width="210" height="60" as="geometry" />
        </mxCell>
        <mxCell id="r_Gh3OEbrr8wISUfsbzo-70" value="&lt;div style=&quot;background-color:#ffffff;color:#080808&quot;&gt;&lt;pre style=&quot;font-family:&#39;JetBrains Mono&#39;,monospace;font-size:13.5pt;&quot;&gt;&lt;pre style=&quot;font-family:&#39;JetBrains Mono&#39;,monospace;font-size:13.5pt;&quot;&gt;&lt;pre style=&quot;font-family:&#39;JetBrains Mono&#39;,monospace;font-size:13.5pt;&quot;&gt;&lt;div&gt;&lt;pre style=&quot;font-family:&#39;JetBrains Mono&#39;,monospace;font-size:13.5pt;&quot;&gt;&lt;span style=&quot;color:#830091;&quot;&gt;window&lt;/span&gt;.&lt;span style=&quot;color:#871094;&quot;&gt;setHtmlRG&lt;/span&gt;&lt;/pre&gt;&lt;/div&gt;&lt;/pre&gt;&lt;/pre&gt;&lt;/pre&gt;&lt;/div&gt;" style="rounded=1;whiteSpace=wrap;html=1;" vertex="1" parent="1">
          <mxGeometry x="-577.5" y="720" width="210" height="60" as="geometry" />
        </mxCell>
        <mxCell id="r_Gh3OEbrr8wISUfsbzo-74" value="&lt;div style=&quot;background-color:#ffffff;color:#080808&quot;&gt;&lt;pre style=&quot;font-family:&#39;JetBrains Mono&#39;,monospace;font-size:13.5pt;&quot;&gt;&lt;span style=&quot;color:#0033b3;&quot;&gt;async&lt;/span&gt;&lt;/pre&gt;&lt;/div&gt;" style="text;html=1;align=center;verticalAlign=middle;whiteSpace=wrap;rounded=0;" vertex="1" parent="1">
          <mxGeometry x="-630" y="520" width="60" height="30" as="geometry" />
        </mxCell>
        <mxCell id="r_Gh3OEbrr8wISUfsbzo-76" value="&lt;div style=&quot;background-color:#ffffff;color:#080808&quot;&gt;&lt;pre style=&quot;font-family:&#39;JetBrains Mono&#39;,monospace;font-size:13.5pt;&quot;&gt;&lt;span style=&quot;color:#0033b3;&quot;&gt;async&lt;/span&gt;&lt;/pre&gt;&lt;/div&gt;" style="text;html=1;align=center;verticalAlign=middle;whiteSpace=wrap;rounded=0;" vertex="1" parent="1">
          <mxGeometry x="-110" y="420" width="60" height="30" as="geometry" />
        </mxCell>
      </root>
    </mxGraphModel>
  </diagram>
</mxfile>
